<?xml version="1.0" standalone="no"?>
<!DOCTYPE svg PUBLIC "-//W3C//DTD SVG 20010904//EN"
 "http://www.w3.org/TR/2001/REC-SVG-20010904/DTD/svg10.dtd">
<svg version="1.0" xmlns="http://www.w3.org/2000/svg"
 width="600.000000pt" height="754.000000pt" viewBox="0 0 600.000000 754.000000"
 preserveAspectRatio="xMidYMid meet">
<g transform="translate(0.000000,754.000000) scale(0.100000,-0.100000)"
fill="#000000" stroke="none">
<path d="M4047 7521 c-4 -18 -9 -19 -43 -9 -47 13 -184 4 -222 -14 -44 -21
-33 -98 14 -98 18 0 109 -47 122 -63 9 -11 6 -19 -14 -36 -21 -18 -25 -30 -22
-56 5 -41 -10 -45 -153 -44 -114 0 -166 -27 -156 -81 5 -23 -1 -32 -43 -63
-102 -76 -104 -142 -6 -172 15 -4 16 -8 6 -20 -12 -14 -10 -42 5 -77 6 -14 2
-18 -16 -18 -36 -1 -109 -37 -109 -55 0 -8 9 -32 20 -52 11 -21 20 -43 20 -50
0 -26 48 -46 95 -39 25 4 45 3 45 -1 0 -21 -67 -73 -93 -73 -32 0 -77 -40 -77
-68 0 -35 -84 -14 -112 28 -27 40 -52 49 -77 26 -20 -18 -28 -12 -64 47 -30
47 -87 21 -87 -40 0 -13 -8 -24 -20 -28 -11 -3 -20 -11 -20 -16 0 -18 -28 -9
-33 11 -3 11 -17 25 -32 32 -33 15 -65 -15 -65 -61 0 -47 -26 -104 -51 -113
-87 -32 -90 -108 -7 -142 l28 -12 -25 -24 c-14 -13 -25 -32 -25 -42 0 -11 -7
-18 -20 -18 -37 0 -90 -28 -102 -55 -15 -32 -1 -48 42 -47 27 1 30 -3 30 -28
0 -19 9 -35 25 -48 l26 -20 -38 -12 c-48 -16 -63 -28 -63 -51 0 -42 64 -50
162 -19 34 11 64 16 66 12 12 -32 32 -60 57 -77 19 -13 30 -29 30 -44 0 -14 9
-28 20 -35 11 -6 36 -21 56 -33 45 -29 64 -29 93 2 l24 25 34 -34 c30 -30 32
-36 21 -52 -26 -36 -8 -114 28 -114 5 0 9 -8 9 -18 0 -47 53 -79 80 -47 9 11
17 12 30 5 10 -6 30 -10 44 -10 21 0 24 -4 23 -27 -3 -35 25 -41 90 -19 61 21
63 16 12 -34 -29 -28 -47 -39 -58 -34 -45 21 -101 16 -136 -10 -64 -49 -40
-95 43 -81 29 5 44 2 63 -13 13 -11 33 -21 44 -23 14 -3 21 -14 23 -34 5 -40
19 -55 51 -55 26 0 34 -10 69 -82 2 -5 -8 -8 -21 -8 -56 0 -72 -50 -32 -98 19
-23 25 -41 25 -80 l0 -49 -52 -6 c-120 -13 -715 -193 -868 -262 -52 -24 -103
-46 -112 -49 -22 -7 -35 -53 -19 -69 8 -8 19 -8 43 1 21 8 36 8 42 2 17 -17
36 -11 46 14 18 49 120 91 434 181 122 35 266 78 320 94 97 30 137 36 77 11
-55 -22 -64 -42 -59 -120 4 -49 1 -75 -8 -87 -33 -43 -5 -88 39 -64 12 6 63
15 112 20 83 9 146 29 160 52 4 5 14 9 23 9 36 0 93 22 121 46 24 20 34 23 50
15 74 -40 114 17 41 58 l-40 22 0 73 0 72 83 2 c45 1 154 13 242 28 299 47
340 53 430 57 62 2 119 12 183 32 77 24 96 26 115 16 26 -14 235 -8 265 8 27
14 281 42 442 47 197 7 210 9 210 39 0 17 -7 25 -22 28 l-23 4 23 8 c40 13 31
65 -12 65 -38 0 -61 -21 -53 -49 9 -34 -224 -39 -237 -5 -6 16 -58 19 -84 5
-13 -7 -22 -1 -39 25 -18 27 -19 34 -7 34 18 0 101 44 127 68 26 23 19 76 -11
80 -12 2 -27 12 -32 23 -12 21 -40 25 -57 8 -8 -8 -13 -5 -18 10 -20 64 -105
60 -105 -4 0 -38 -10 -44 -31 -19 -8 10 -21 13 -36 9 -20 -5 -26 0 -35 26 -7
19 -22 36 -42 45 l-31 14 30 -2 c77 -3 148 34 138 71 -4 15 2 21 26 26 38 8
81 58 81 92 0 26 0 26 21 7 12 -10 37 -20 58 -21 20 -1 58 -5 84 -9 44 -6 49
-5 54 15 7 28 54 28 94 -1 42 -32 70 -8 45 40 -25 49 -83 63 -144 35 -21 -10
-63 -17 -95 -18 l-59 0 5 39 c7 51 -4 71 -55 97 -36 18 -39 22 -26 36 13 13
19 11 46 -16 59 -59 148 -27 140 50 -4 47 -40 53 -58 10 -16 -39 -19 -39 -53
4 -38 48 -69 47 -119 -6 -45 -47 -51 -121 -16 -191 34 -69 24 -89 -54 -108
-58 -15 -77 -34 -60 -60 13 -22 -19 -34 -80 -31 -28 2 -39 -2 -48 -18 -9 -19
-17 -20 -64 -15 -32 4 -61 2 -74 -5 -19 -10 -22 -8 -32 31 -6 24 -14 51 -17
61 -6 21 -87 59 -117 55 -38 -5 -30 -35 17 -63 37 -21 47 -33 56 -68 16 -65
33 -75 124 -74 88 0 90 -1 81 -37 -5 -22 -9 -25 -21 -14 -41 34 -64 -158 -27
-227 9 -16 21 -47 29 -67 l13 -38 -29 0 c-16 0 -29 5 -29 10 0 6 -13 10 -28
10 l-28 0 4 60 c4 49 1 61 -12 66 -28 11 -41 -13 -41 -75 l0 -58 -43 -12 c-59
-15 -65 -15 -52 9 6 10 13 46 17 79 3 33 10 58 15 55 48 -30 51 144 4 192 -10
10 -16 33 -16 63 0 48 -18 79 -39 67 -6 -4 -15 10 -20 31 -6 21 -17 60 -24 87
-12 45 -17 51 -52 60 -35 10 -40 16 -51 61 -7 27 -21 55 -30 62 -47 34 -138
-4 -132 -56 4 -35 53 -44 63 -11 10 31 26 20 41 -28 16 -56 29 -70 73 -79 l36
-7 -45 -13 c-37 -12 -55 -12 -98 -2 -67 16 -89 2 -54 -34 23 -22 110 -31 184
-17 15 3 28 1 30 -5 6 -19 -211 -33 -217 -14 -4 10 -21 19 -45 23 -22 3 -39
10 -39 14 4 21 -3 32 -18 32 -46 0 11 22 60 23 59 2 84 16 74 41 -8 19 -126
23 -159 5 -11 -6 -32 -13 -46 -15 -15 -3 -34 -11 -42 -18 -23 -19 -180 -14
-211 7 -43 31 -129 3 -129 -42 0 -5 -10 -13 -22 -16 -13 -4 -42 -28 -65 -53
-40 -44 -43 -46 -43 -21 0 14 -6 31 -12 37 -10 10 -10 17 0 33 11 18 11 24 -2
38 -15 16 -14 19 4 36 45 41 22 85 -46 85 -19 0 -34 3 -34 6 0 12 34 33 53 34
50 1 84 76 47 107 -20 17 -19 17 6 44 19 20 25 35 22 53 -4 22 -1 26 18 26 50
0 79 48 39 64 -19 7 -101 -8 -117 -22 -7 -6 -31 -13 -53 -17 -66 -11 -75 -15
-75 -35 0 -24 30 -33 83 -25 l42 7 -27 -25 c-33 -31 -36 -67 -8 -92 21 -19 21
-19 -22 -35 -25 -9 -51 -28 -63 -45 -23 -36 -79 -65 -124 -65 -44 0 -66 -14
-81 -50 -7 -16 -20 -30 -29 -30 -27 0 -54 -25 -67 -61 -7 -21 -17 -32 -25 -29
-8 2 -29 4 -46 4 -21 0 -33 4 -33 13 0 7 -11 20 -25 29 l-25 16 25 30 c14 16
25 38 25 48 0 20 -44 60 -66 60 -8 0 -14 5 -14 10 0 45 -79 63 -118 28 l-24
-23 -24 28 c-13 15 -24 36 -24 46 0 24 -20 41 -47 41 -16 0 -31 12 -48 40 -30
47 -58 64 -96 56 -24 -5 -29 -2 -29 14 0 11 -11 27 -25 36 -23 15 -23 17 -9
40 9 14 14 34 10 47 -4 16 1 26 15 35 15 10 19 20 15 36 -5 20 2 26 45 46 74
35 68 68 -16 87 -81 18 -85 26 -25 51 27 11 50 25 51 29 0 4 2 27 4 51 4 55 8
59 41 38 35 -23 62 -14 99 33 l30 38 33 -25 c23 -18 40 -23 60 -19 23 5 30 1
44 -23 24 -43 178 -57 178 -15 0 7 7 15 15 19 8 3 15 12 15 20 0 16 21 26 55
26 35 0 125 105 125 146 0 45 -20 56 -86 52 -55 -3 -56 -2 -69 30 -13 30 -13
32 6 32 59 0 103 56 81 104 -7 16 -6 27 4 41 32 44 9 95 -44 95 -11 0 -25 7
-32 15 -9 10 -9 15 -1 15 6 0 25 14 43 30 17 17 39 30 48 30 27 0 43 26 38 65
-3 30 -1 36 19 41 25 7 107 0 139 -10 14 -5 27 -2 37 8 9 10 33 16 61 16 51 0
64 18 46 64 -5 15 -10 29 -10 30 0 2 14 17 30 34 17 18 30 40 30 51 0 23 -61
78 -107 97 -42 18 -42 33 0 36 56 3 89 -2 110 -17 32 -22 52 -18 81 16 37 43
35 79 -3 79 -20 0 -30 -6 -34 -19z m1491 -1860 c8 -4 12 -19 10 -33 -3 -25 -3
-25 -25 9 -21 32 -15 43 15 24z m-1733 -71 c3 -5 19 -10 36 -10 24 0 29 -4 29
-25 0 -14 5 -25 11 -25 5 0 3 -10 -5 -22 -20 -28 -20 -59 -1 -84 22 -29 18
-37 -23 -56 -52 -25 -127 -92 -118 -106 14 -23 54 -12 103 27 39 30 53 37 67
29 13 -7 31 -5 62 7 40 15 57 16 164 5 106 -12 128 -11 204 5 95 20 110 16 77
-19 -16 -17 -22 -33 -19 -57 3 -31 -1 -36 -35 -51 -27 -12 -38 -23 -35 -35 5
-28 43 -27 104 1 68 31 64 31 64 5 0 -12 8 -23 20 -26 22 -6 22 -6 14 -27 -3
-9 -18 -16 -32 -16 -37 0 -62 -27 -62 -67 l0 -35 -26 31 c-31 38 -48 39 -70 6
-9 -14 -26 -25 -38 -25 -30 0 -66 -35 -66 -65 0 -34 -28 -22 -32 13 -2 17 -12
31 -29 39 -24 12 -26 17 -20 50 12 70 -9 94 -63 74 -20 -8 -26 -7 -26 4 0 7
-12 23 -27 35 -15 12 -32 35 -38 52 -13 41 -37 55 -67 41 -13 -6 -35 -14 -50
-17 -40 -9 -98 -63 -98 -92 0 -17 -8 -27 -24 -34 -13 -5 -27 -13 -30 -19 -5
-7 -13 -7 -24 -2 -9 5 -25 12 -36 15 -14 5 -17 12 -12 32 9 36 -10 56 -45 49
-15 -3 -30 -1 -34 4 -3 6 -2 11 4 11 54 0 166 133 131 155 -6 4 2 18 20 35 94
88 -46 127 -148 41 l-51 -42 9 30 c12 43 16 48 49 54 19 4 36 18 49 42 20 33
24 35 59 29 32 -5 42 -2 62 20 26 28 36 32 46 16z m378 -116 c21 -18 36 -23
51 -18 12 3 62 9 111 11 50 3 94 9 100 14 5 5 16 9 24 9 25 0 -52 -37 -115
-56 -55 -16 -256 -25 -270 -12 -4 4 56 76 65 77 2 1 17 -11 34 -25z m375 -105
c-13 -39 -99 -129 -105 -112 -2 7 3 23 11 35 9 12 16 35 16 50 0 28 36 57 72
58 15 0 15 -4 6 -31z m306 -144 c1 -127 -14 -257 -33 -293 -18 -33 -44 -42
-133 -46 -46 -3 -193 -22 -328 -44 -135 -22 -266 -43 -292 -46 l-48 -6 0 45
c0 24 5 47 10 50 41 25 -16 90 -88 100 -34 4 -52 12 -52 21 0 46 -105 41 -123
-7 -16 -41 -27 -36 -16 9 5 20 9 40 9 44 0 4 17 8 38 10 l37 3 0 48 c0 83 70
108 113 40 22 -34 22 -36 5 -55 -37 -41 32 -70 105 -45 20 8 22 6 22 -33 0
-34 4 -42 26 -52 26 -12 26 -16 3 -75 -23 -56 23 -83 73 -43 17 13 28 16 35 9
6 -6 23 -9 39 -7 27 3 29 6 32 56 2 38 7 52 18 52 8 0 22 5 32 11 15 10 27 5
65 -24 56 -43 95 -53 144 -36 101 32 89 109 -16 109 -65 0 -73 16 -19 39 24
10 49 28 56 40 8 14 22 21 43 21 41 0 69 16 69 40 0 28 -35 60 -66 60 -14 0
-24 3 -22 8 2 4 16 33 31 64 30 66 48 78 114 79 26 1 59 4 73 8 36 10 43 -13
44 -154z m436 19 c0 -39 23 -58 63 -51 20 3 39 1 42 -4 11 -16 61 -10 80 11
13 15 22 17 36 10 10 -6 31 -10 48 -10 63 0 36 -43 -34 -53 -98 -15 -142 -103
-59 -117 23 -4 29 -10 29 -30 0 -23 -5 -26 -60 -32 -146 -17 -135 -21 -164 47
-39 92 -35 321 4 269 8 -11 15 -28 15 -40z m-347 -124 c3 -13 0 -20 -9 -20 -8
0 -14 10 -14 26 0 28 15 25 23 -6z m297 -185 c0 -3 -2 -5 -5 -5 -3 0 -5 2 -5
5 0 3 2 5 5 5 3 0 5 -2 5 -5z m-343 -22 c-4 -3 -10 -3 -14 0 -3 4 0 7 7 7 7 0
10 -3 7 -7z m-1030 -70 c-4 -3 -10 -3 -14 0 -3 4 0 7 7 7 7 0 10 -3 7 -7z
m-17 -53 c0 -5 -7 -10 -16 -10 -8 0 -12 5 -9 10 3 6 10 10 16 10 5 0 9 -4 9
-10z m19 -127 c0 -34 -1 -36 -11 -16 -6 12 -8 29 -5 37 11 27 17 18 16 -21z
m-119 -22 c-23 -13 -86 -23 -75 -12 11 10 40 18 70 20 16 0 17 -1 5 -8z m80
-26 c0 -9 -9 -15 -21 -15 -18 0 -19 2 -9 15 7 8 16 15 21 15 5 0 9 -7 9 -15z
m-130 -65 c0 -5 -12 -10 -27 -10 -22 0 -25 2 -13 10 20 13 40 13 40 0z m215 1
c3 -6 -3 -15 -14 -20 -14 -8 -20 -7 -24 3 -9 24 24 38 38 17z m-90 -51 c4 -6
-8 -10 -30 -10 -22 0 -34 4 -30 10 3 6 17 10 30 10 13 0 27 -4 30 -10z"/>
<path d="M5357 7273 c-8 -10 -21 -40 -28 -66 -9 -39 -15 -47 -28 -41 -9 4 -38
9 -66 11 -27 1 -63 4 -80 5 -45 4 -48 -35 -4 -61 81 -49 239 -16 239 50 0 12
12 37 26 56 14 19 23 41 20 48 -8 21 -60 19 -79 -2z"/>
<path d="M5760 7140 c-37 -39 -82 -134 -78 -163 6 -43 40 -26 73 36 16 32 43
71 58 87 33 34 32 64 -1 68 -15 2 -32 -7 -52 -28z"/>
<path d="M4937 7133 c-4 -3 -7 -13 -7 -20 0 -8 -10 -27 -21 -43 -38 -50 13
-88 55 -41 10 11 32 21 50 23 23 2 32 9 34 24 5 35 -87 82 -111 57z"/>
<path d="M4514 7122 c-9 -7 -34 -175 -34 -235 l0 -27 -49 25 c-27 13 -52 29
-56 35 -9 15 -55 12 -55 -4 0 -7 -9 -16 -20 -19 -51 -13 -20 -56 76 -106 34
-18 73 -45 86 -59 28 -30 136 -227 121 -221 -98 40 -156 69 -192 96 -50 37
-69 41 -77 16 -3 -10 -11 -28 -17 -40 -18 -38 90 -123 156 -123 37 0 73 -20
138 -75 29 -25 59 -45 66 -45 19 0 28 29 16 49 -7 12 -6 19 6 28 14 10 14 15
-4 50 -11 21 -21 43 -23 48 -6 14 43 -43 79 -92 37 -53 79 -61 79 -15 0 20
-19 48 -66 102 -75 85 -97 124 -133 230 -23 66 -29 75 -51 75 -33 0 -37 38
-16 141 27 130 15 198 -30 166z m36 -382 c0 -11 -2 -20 -5 -20 -2 0 -9 9 -15
20 -9 16 -8 20 5 20 8 0 15 -9 15 -20z"/>
<path d="M5795 7048 c-68 -81 -80 -151 -31 -183 42 -28 71 1 44 44 -9 15 -6
28 20 75 52 91 28 137 -33 64z"/>
<path d="M4764 7034 c-7 -26 2 -150 12 -166 15 -24 52 -6 83 42 39 60 36 85
-9 76 -27 -5 -30 -3 -30 18 0 58 -43 81 -56 30z"/>
<path d="M5148 7023 c-8 -10 -30 -48 -48 -85 -39 -81 -37 -120 11 -188 18 -25
47 -66 65 -91 l32 -47 -40 -38 c-22 -22 -49 -57 -58 -78 -18 -39 -19 -40 -67
-37 -62 3 -106 -27 -101 -68 4 -33 34 -39 59 -12 21 22 54 28 64 11 10 -16 53
-11 65 8 8 13 9 2 4 -45 -7 -72 7 -88 51 -59 32 21 42 20 48 -5 4 -16 11 -20
26 -16 13 3 21 0 21 -8 0 -12 17 -24 94 -73 45 -28 126 7 126 55 0 32 -40 35
-73 5 -16 -14 -19 -13 -42 8 -47 44 19 97 106 85 47 -7 49 -6 88 34 22 23 49
41 59 41 29 0 48 26 32 45 -25 30 -78 19 -121 -25 -33 -33 -46 -40 -79 -40
-52 0 -52 -2 35 115 83 111 95 150 45 143 -16 -3 -30 -1 -30 4 0 5 -10 8 -22
6 -30 -4 -104 -98 -165 -210 -32 -59 -55 -92 -64 -89 -8 2 -27 3 -42 3 -56 -1
-13 109 66 169 72 55 137 122 137 141 0 34 -30 32 -65 -2 -29 -28 -35 -31 -41
-17 -8 21 -37 22 -54 2 -16 -19 -30 -19 -30 -1 0 8 -16 38 -36 67 -20 30 -45
71 -55 91 l-19 37 31 50 c50 79 39 173 -13 114z"/>
<path d="M4572 7008 c-17 -22 -21 -169 -5 -175 25 -10 44 21 50 80 9 88 -13
134 -45 95z"/>
<path d="M5849 6798 c-47 -62 -57 -68 -114 -68 -63 0 -97 -21 -93 -58 2 -21 8
-26 23 -24 11 2 52 7 90 12 68 9 71 10 118 62 48 53 64 88 52 107 -13 23 -45
9 -76 -31z"/>
<path d="M4025 6560 c-33 -53 128 -170 211 -155 26 5 31 2 51 -33 l22 -40 -46
14 c-50 15 -125 19 -137 7 -4 -5 -24 -8 -44 -8 -28 0 -37 -4 -40 -19 -8 -38
64 -61 106 -35 36 23 111 2 155 -42 41 -42 69 -47 75 -14 3 11 10 24 18 28 22
13 17 30 -35 110 -56 85 -77 101 -125 92 -45 -9 -90 15 -121 65 -25 40 -74 56
-90 30z"/>
<path d="M5961 6429 c-13 -5 -64 -48 -113 -94 -86 -82 -196 -165 -217 -165
-15 0 -13 -96 2 -140 16 -47 51 -49 55 -3 4 44 56 53 125 23 64 -28 112 -24
112 10 0 17 -6 26 -20 28 -11 2 -39 10 -62 18 l-43 16 66 72 c35 39 80 80 99
91 43 23 53 77 13 69 l-23 -5 23 17 c14 10 22 27 22 45 0 31 -3 33 -39 18z
m-247 -304 c-15 -23 -34 -33 -34 -18 0 10 32 43 42 43 5 0 1 -11 -8 -25z"/>
<path d="M3287 6173 c-23 -22 -3 -43 64 -69 86 -32 146 -79 114 -89 -11 -3
-60 -26 -108 -51 -49 -25 -107 -48 -130 -52 -36 -7 -42 -11 -42 -32 0 -47 69
-40 173 16 128 69 167 73 213 20 65 -74 184 -113 184 -61 0 14 -17 29 -58 50
-41 22 -78 54 -133 117 -85 98 -104 112 -182 139 -58 20 -84 23 -95 12z"/>
<path d="M5035 5932 c-6 -5 -32 -17 -58 -26 -31 -12 -52 -27 -59 -42 -6 -13
-19 -24 -29 -24 -61 0 -65 -73 -7 -118 68 -52 119 -31 64 27 l-27 28 34 35
c52 55 74 64 101 39 12 -12 29 -21 37 -21 8 -1 0 -7 -17 -14 -38 -17 -74 -61
-74 -92 0 -32 19 -30 65 6 21 17 48 30 61 30 39 0 86 48 82 84 -3 29 -6 31
-51 36 -38 4 -50 10 -60 30 -13 26 -45 37 -62 22z"/>
<path d="M5934 5762 c-50 -40 -52 -80 -8 -139 19 -25 21 -32 9 -37 -23 -8 -18
-36 8 -45 56 -21 80 58 36 118 -22 30 -19 51 7 51 11 0 14 9 12 33 -4 38 -31
47 -64 19z"/>
<path d="M2375 4249 c-148 -76 -521 -249 -539 -249 -3 0 -6 9 -6 20 0 54 -286
90 -370 48 -46 -23 -62 -55 -42 -81 5 -7 12 -44 16 -84 l7 -71 -93 -49 c-79
-41 -93 -52 -93 -73 0 -29 55 -32 85 -5 26 24 213 108 485 220 278 114 563
248 658 308 31 20 62 37 67 37 14 0 32 39 26 56 -8 22 -19 18 -201 -77z"/>
<path d="M1137 3704 c-4 -4 -7 -14 -7 -22 0 -8 -22 -34 -50 -59 -27 -24 -73
-83 -102 -131 -29 -48 -69 -114 -90 -146 l-38 -60 -65 1 c-58 1 -67 4 -89 30
-21 24 -32 28 -74 28 -44 0 -51 3 -65 28 -28 48 -117 17 -117 -42 0 -48 -12
-53 -31 -12 -25 56 -84 53 -152 -7 -16 -14 -20 -14 -46 1 -55 32 -101 8 -116
-60 -6 -29 -10 -32 -48 -35 -37 -3 -42 -6 -42 -28 0 -23 4 -25 52 -28 50 -3
52 -2 68 30 32 67 38 71 74 51 25 -15 34 -16 48 -6 18 12 102 53 109 53 2 0 4
-15 4 -33 0 -96 116 -64 138 38 8 38 9 39 15 14 9 -34 30 -42 77 -29 49 13 66
6 74 -30 7 -38 42 -48 85 -25 30 15 51 13 51 -5 0 -15 -132 -172 -233 -277
-102 -106 -121 -114 -110 -49 8 53 -27 86 -92 86 -33 0 -57 -5 -64 -14 -19
-22 -71 11 -71 45 0 63 -96 97 -168 60 -23 -12 -42 -28 -42 -36 0 -8 -4 -15
-10 -15 -5 0 -10 -11 -10 -25 0 -30 29 -35 37 -6 5 19 45 31 104 31 23 0 27
-5 35 -47 7 -38 14 -49 31 -51 12 -2 29 -14 37 -28 22 -33 54 -30 93 8 26 25
36 29 45 20 26 -26 28 -250 3 -289 -42 -63 1 -89 81 -48 56 28 101 28 125 -1
23 -28 89 -4 89 32 0 12 56 64 69 64 6 0 11 7 11 15 0 18 43 37 65 29 9 -4 23
0 33 8 30 25 80 23 84 -4 4 -32 40 -35 67 -7 18 19 21 20 21 6 0 -26 24 -31
59 -12 31 15 31 15 31 -9 0 -39 25 -56 81 -56 42 0 53 -4 76 -30 14 -16 32
-30 38 -30 6 0 22 -11 35 -25 27 -29 56 -32 82 -8 17 15 18 15 18 0 0 -22 50
-47 93 -47 18 0 38 -5 43 -10 7 -7 23 -5 49 6 l38 16 -6 241 c-6 221 0 304 17
250 15 -46 25 -180 26 -321 0 -136 2 -153 18 -159 9 -4 22 -13 28 -21 7 -10
16 -12 25 -7 26 17 54 12 78 -12 31 -31 52 -26 70 14 8 18 22 35 31 38 10 3
36 28 59 55 25 29 50 50 62 50 23 0 57 16 77 37 7 7 29 13 47 13 20 0 40 7 47
16 7 9 28 32 47 51 32 32 33 37 27 83 -4 32 -3 50 3 50 6 0 14 12 17 26 7 27
-64 114 -92 114 -24 0 -25 20 -5 54 27 44 26 65 -5 107 -14 19 -34 53 -44 77
-22 50 9 47 -315 27 -234 -14 -241 -15 -303 -46 -35 -17 -65 -29 -66 -27 -2 1
-15 26 -29 54 -28 55 -105 131 -144 140 -61 16 -70 -30 -11 -58 39 -19 81 -65
117 -128 31 -56 19 -50 -19 10 -79 123 -193 154 -296 79 l-29 -21 27 25 c14
14 48 33 75 42 81 30 97 65 30 65 -51 0 -129 -43 -176 -96 -43 -49 -162 -240
-175 -282 -4 -13 -34 -53 -67 -90 -80 -90 -113 -138 -105 -157 10 -27 34 -16
82 39 39 43 50 51 59 40 5 -7 24 -16 40 -20 31 -6 31 -5 69 90 30 73 42 93 50
83 6 -8 23 -21 38 -30 27 -17 28 -20 26 -100 -2 -85 4 -107 26 -107 15 0 26
43 26 100 0 30 5 39 25 48 30 14 30 12 6 -64 -11 -32 -22 -71 -25 -86 -7 -31
-40 -38 -76 -16 -14 9 -27 9 -47 2 -22 -8 -33 -6 -53 8 -34 25 -180 24 -188 0
-2 -6 -18 -16 -35 -21 -19 -7 -42 -26 -56 -49 -48 -73 -60 -81 -93 -70 -16 6
-52 8 -79 5 l-50 -6 7 47 c6 44 16 57 148 192 149 152 221 246 380 496 71 112
112 165 161 209 61 55 76 78 58 88 -17 10 -69 17 -76 11z m183 -411 c9 -12 -1
-144 -11 -137 -5 3 -9 13 -9 23 0 10 -13 44 -29 76 l-29 57 36 -5 c19 -4 38
-10 42 -14z m-126 -50 c3 -27 8 -76 12 -111 l6 -62 -38 -16 c-53 -22 -73 4
-74 96 0 61 2 66 37 102 47 48 50 48 57 -9z m914 10 c-15 -2 -42 -2 -60 0 -18
2 -6 4 27 4 33 0 48 -2 33 -4z m-393 -13 c-28 -12 -47 -12 -40 0 3 6 18 10 33
9 24 0 25 -1 7 -9z m-335 -80 c0 -27 -4 -50 -10 -50 -5 0 -10 23 -10 50 0 28
5 50 10 50 6 0 10 -22 10 -50z m785 25 c70 -29 54 -86 -23 -84 -136 5 -249
-186 -191 -322 36 -82 88 -104 97 -41 3 17 7 19 20 12 9 -5 26 -12 37 -15 l20
-7 -20 -8 c-11 -5 -32 -11 -47 -14 -15 -3 -59 -37 -97 -75 -66 -65 -72 -69
-98 -59 l-28 10 3 187 c5 382 19 403 280 430 7 0 28 -6 47 -14z m-330 -30
c-26 -40 -34 -66 -44 -163 l-7 -67 -8 55 c-5 30 -15 73 -23 95 -8 22 -18 57
-22 78 l-9 37 69 0 68 0 -24 -35z m-198 8 c-4 -3 -10 -3 -14 0 -3 4 0 7 7 7 7
0 10 -3 7 -7z m-375 -42 c2 -13 -3 -26 -9 -28 -9 -3 -13 7 -13 33 0 41 17 37
22 -5z m196 -11 c31 -54 28 -69 -8 -35 -16 16 -30 39 -30 52 0 33 12 28 38
-17z m212 -50 c0 -11 -21 -11 -65 0 -27 7 -25 8 18 9 26 0 47 -3 47 -9z m-270
-50 c21 -21 40 -61 40 -83 0 -7 -8 2 -19 18 -32 53 -56 68 -101 63 -36 -3 -39
-2 -24 9 27 20 81 16 104 -7z m190 0 l29 0 0 -232 c1 -178 -2 -229 -11 -220
-7 7 -22 12 -35 12 -38 0 -43 28 -43 245 0 185 2 206 16 201 9 -3 29 -6 44 -6z
m665 -46 c19 -25 24 -38 17 -51 -9 -14 -10 -14 -17 6 -4 12 -20 37 -36 56 -25
28 -26 32 -10 28 11 -3 32 -20 46 -39z m-866 -99 c11 -53 16 -142 13 -212 l-2
-42 -35 22 c-19 12 -32 28 -30 35 3 8 5 77 5 155 l0 142 20 -25 c11 -14 24
-47 29 -75z m-97 -78 c-5 -94 -4 -91 -31 -82 -22 7 -21 37 6 134 20 73 31 51
25 -52z m975 46 c-4 -3 -7 0 -7 7 0 7 3 10 7 7 3 -4 3 -10 0 -14z m-227 -68
c0 -3 -2 -5 -5 -5 -3 0 -5 2 -5 5 0 3 2 5 5 5 3 0 5 -2 5 -5z m-583 -182 c-4
-3 -7 0 -7 7 0 7 3 10 7 7 3 -4 3 -10 0 -14z"/>
<path d="M3515 3586 c-137 -44 -237 -111 -222 -149 3 -9 -3 -13 -16 -13 -15 1
-31 -14 -53 -48 -38 -56 -83 -106 -98 -106 -6 0 -22 -9 -36 -20 -14 -11 -35
-20 -48 -20 -13 0 -32 -4 -42 -10 -13 -7 -21 -6 -30 5 -16 19 -33 19 -72 -1
l-30 -16 16 23 c31 45 4 73 -41 43 -56 -36 -114 -222 -80 -255 8 -8 17 -24 21
-35 3 -12 35 -50 70 -85 62 -61 63 -64 48 -87 -18 -27 -2 -67 30 -78 20 -6 24
-19 8 -29 -29 -18 6 -105 43 -105 7 0 18 -9 25 -20 7 -11 18 -20 26 -20 7 0
26 -10 40 -21 25 -20 29 -20 44 -6 16 17 4 67 -17 67 -5 0 -29 16 -52 36 -41
34 -44 39 -44 87 0 43 -4 53 -22 62 -16 8 -19 15 -12 22 22 22 -2 70 -66 133
-36 34 -65 70 -65 79 0 10 -5 22 -11 28 -6 6 -9 28 -7 49 3 36 6 39 42 46 22
5 45 13 53 20 10 8 18 6 33 -7 19 -18 22 -18 56 -2 46 22 51 21 27 -5 -66 -73
-65 -178 2 -237 65 -56 157 -49 201 16 l21 32 7 -72 c13 -130 14 -120 -20
-127 -88 -19 -127 -84 -96 -158 11 -26 23 -60 26 -77 l6 -30 -65 0 c-70 0
-103 -19 -91 -50 5 -14 17 -16 66 -13 60 3 60 3 60 -24 0 -29 4 -31 82 -42 27
-3 47 -15 74 -45 20 -23 42 -41 48 -41 19 0 56 -44 56 -67 0 -14 10 -24 30
-32 17 -5 30 -16 30 -24 0 -8 6 -20 14 -26 19 -16 106 -4 106 14 0 14 28 18
177 30 42 3 74 1 78 -5 8 -12 -20 -17 -134 -25 -98 -6 -131 -16 -131 -39 0
-20 19 -32 82 -52 31 -9 55 -21 52 -26 -16 -25 39 -50 154 -68 30 -5 62 -15
71 -23 9 -7 34 -19 56 -26 22 -8 51 -26 65 -42 23 -27 31 -29 128 -35 56 -4
105 -11 108 -15 10 -18 166 1 202 24 7 5 12 3 12 -6 0 -8 11 -30 24 -50 24
-35 24 -37 9 -69 -28 -57 -73 -67 -95 -20 -20 41 -63 43 -85 3 -24 -41 -47
-45 -72 -10 -28 38 -62 38 -93 0 -38 -45 -65 -49 -73 -11 -13 57 -95 60 -95 3
0 -32 -47 -37 -73 -8 -27 32 -71 30 -82 -5 -4 -12 -15 -20 -29 -20 -12 0 -30
-6 -39 -13 -23 -16 0 -68 36 -84 40 -18 54 -226 17 -236 -21 -5 -29 -37 -9
-37 6 0 8 -8 4 -19 -4 -13 1 -24 16 -34 20 -15 19 -16 -27 -21 -140 -18 -149
-20 -149 -41 0 -16 8 -21 37 -23 30 -3 274 21 304 29 5 2 18 0 30 -4 13 -5 37
0 65 12 28 13 47 17 53 11 11 -11 89 -13 124 -4 18 5 22 13 22 45 0 46 46 61
52 17 6 -42 38 -35 38 9 0 28 3 34 10 23 5 -8 10 -27 10 -42 0 -15 5 -30 12
-34 14 -9 38 23 38 53 0 19 5 23 30 23 30 0 43 -24 18 -32 -6 -2 -9 -11 -6
-19 6 -16 291 -18 398 -2 25 3 72 7 105 8 33 1 89 7 125 13 36 7 101 12 145
13 44 0 105 4 135 8 30 4 68 3 84 -3 21 -6 41 -4 75 8 30 10 71 15 120 14 59
-2 75 1 86 15 7 9 20 17 29 17 12 0 16 10 18 43 l1 42 6 -45 6 -45 44 -3 c67
-5 91 4 91 33 0 16 -6 25 -15 25 -8 0 -15 5 -15 10 0 6 5 10 10 10 16 0 12 27
-5 34 -25 9 -21 116 5 123 25 7 31 224 7 257 -17 23 -48 17 -63 -12 -18 -36
-23 -37 -35 -4 -19 57 -63 52 -95 -11 l-16 -29 -27 32 c-30 37 -59 38 -77 2
-17 -35 -23 -37 -33 -8 -6 14 -17 26 -26 26 -8 0 -15 9 -15 19 0 11 -4 23 -10
26 -5 3 -10 17 -10 31 0 41 -18 64 -50 64 -33 0 -60 -23 -60 -50 0 -63 -49
-91 -74 -42 -31 61 -147 79 -205 33 -81 -65 -101 -65 -101 -1 0 51 -31 70 -80
50 -28 -11 -34 -23 -33 -58 2 -30 -32 -4 -43 33 l-11 40 -99 8 c-103 9 -124
17 -124 48 0 30 -40 46 -130 52 -111 7 -120 11 -120 52 0 43 -12 51 -95 60
-108 10 -115 13 -115 46 0 41 -30 66 -87 74 -74 10 -83 14 -83 40 0 34 -31 66
-81 84 -35 14 -43 21 -41 38 4 28 -42 38 -137 30 -54 -4 -61 -3 -38 6 42 17
36 47 -10 48 -36 0 -34 2 23 18 238 68 343 331 227 567 -144 294 -549 260
-654 -54 -28 -84 -23 -232 9 -304 l21 -48 -23 15 c-34 23 -59 165 -46 260 64
437 609 490 751 73 41 -120 9 -304 -67 -386 -70 -76 -112 -117 -135 -133 -20
-14 -22 -19 -10 -33 20 -24 46 -19 74 14 14 17 32 30 40 30 16 0 35 20 52 54
7 14 27 25 59 33 61 15 67 21 91 82 15 40 24 51 42 51 13 0 24 8 28 19 4 12
12 18 20 15 8 -3 26 4 41 15 33 26 57 26 113 1 58 -27 69 -25 89 10 11 19 25
30 39 30 12 0 29 7 38 16 15 15 17 15 34 0 10 -9 23 -16 29 -16 6 0 26 -13 44
-29 61 -52 133 -48 163 9 14 27 17 28 49 18 41 -13 81 7 96 48 8 19 17 24 43
24 20 0 44 9 57 20 l24 20 30 -29 c17 -16 45 -33 61 -37 50 -11 86 -37 106
-76 13 -25 29 -40 54 -48 68 -23 91 16 30 51 -38 23 -47 44 -15 34 12 -4 26
-2 33 3 7 5 47 12 89 14 71 3 80 6 111 36 18 18 36 29 40 26 28 -28 53 71 36
143 -6 27 -11 61 -10 77 1 16 -6 37 -15 47 -16 18 -16 19 -1 19 10 0 17 6 17
14 0 35 126 26 142 -10 6 -13 19 -26 30 -29 42 -14 45 -65 7 -114 -23 -29 -24
-143 -3 -178 19 -31 18 -47 -3 -38 -46 19 -166 45 -183 40 -35 -11 -36 -55 -1
-55 31 0 149 -41 162 -56 48 -58 133 51 94 121 -10 20 -14 41 -10 54 4 13 1
28 -5 36 -9 11 -8 22 9 48 43 70 35 159 -17 182 -12 5 -25 18 -28 28 -3 9 -20
25 -37 34 l-32 17 46 6 c53 6 81 25 77 50 -2 9 12 29 30 44 28 24 32 34 32 77
0 56 -12 63 -36 18 -8 -17 -31 -44 -49 -61 -19 -16 -36 -37 -39 -46 -4 -11
-25 -22 -58 -29 -35 -9 -62 -22 -79 -41 -24 -26 -27 -27 -48 -14 -12 9 -45 23
-74 33 l-52 18 98 -6 c93 -5 97 -5 97 15 0 31 -20 34 -240 40 -136 4 -192 8
-165 13 79 15 266 9 364 -11 122 -26 151 -26 151 0 0 62 -342 101 -556 65
-170 -30 -298 -68 -309 -92 -7 -16 -19 -23 -49 -25 -48 -4 -69 -29 -45 -54 19
-18 56 -14 239 25 99 21 255 38 210 22 -135 -45 -210 -147 -210 -283 0 -57 -1
-58 -28 -58 -15 0 -38 -8 -52 -17 -13 -9 -34 -18 -46 -19 -23 -3 -74 -32 -74
-43 -1 -26 -18 -31 -53 -15 -46 22 -76 10 -91 -36 -14 -44 -40 -50 -67 -16
-11 14 -29 26 -40 26 -10 0 -29 11 -41 25 -27 31 -77 34 -103 5 -10 -11 -22
-20 -27 -20 -4 0 -8 110 -8 245 0 135 1 245 3 245 2 0 42 -20 90 -45 95 -49
124 -55 134 -27 4 9 14 22 22 29 25 18 -5 43 -130 103 -138 67 -217 76 -362
41 -49 -12 -109 -21 -133 -21 -30 0 -46 -5 -50 -15 -8 -21 -32 -19 -30 2 1 12
-22 25 -89 50 -234 88 -332 101 -460 59z m65 -190 c10 -13 10 -16 -3 -16 -35
0 -111 -43 -163 -91 -66 -63 -89 -99 -120 -187 -17 -50 -24 -62 -29 -47 -20
59 -30 78 -57 100 -17 14 -42 25 -59 25 -35 0 -38 17 -5 29 13 5 77 58 142
116 86 78 138 116 189 140 l70 32 11 -43 c6 -24 16 -50 24 -58z m90 74 c0 -16
-4 -30 -9 -30 -12 0 -24 37 -16 50 12 20 25 10 25 -20z m174 -9 l119 -38 12
-46 c7 -26 19 -55 28 -65 10 -10 17 -24 17 -30 0 -18 38 -33 73 -30 l32 3 3
67 c3 61 5 68 25 73 47 10 172 35 180 35 4 0 7 -9 7 -20 0 -11 9 -45 19 -75
10 -29 22 -73 26 -96 l7 -43 -31 27 c-82 69 -200 34 -236 -69 l-13 -38 -21 43
c-60 117 -187 204 -343 236 -26 5 -28 9 -28 55 0 28 1 50 3 50 1 0 56 -18 121
-39z m625 -101 c0 -34 -2 -40 -9 -25 -13 29 -13 104 0 85 5 -8 9 -35 9 -60z
m1034 -27 c-13 -2 -33 -2 -45 0 -13 2 -3 4 22 4 25 0 35 -2 23 -4z m-187 -64
c-45 -40 -67 -72 -94 -134 -12 -30 -12 -30 -6 10 8 53 38 100 87 136 59 43 67
35 13 -12z m204 16 c0 -3 -2 -5 -5 -5 -3 0 -5 2 -5 5 0 3 2 5 5 5 3 0 5 -2 5
-5z m-1736 -177 c4 -79 5 -161 4 -183 -7 -99 -1 -276 10 -287 32 -32 37 7 36
302 l-2 289 22 -11 c41 -21 47 -29 34 -45 -9 -11 -13 -88 -15 -272 l-3 -256
-48 -22 c-87 -42 -87 -42 -89 112 -1 78 2 137 7 140 12 8 13 60 1 83 -4 9 -11
79 -14 155 l-5 137 27 0 28 0 7 -142z m-104 -2 c0 -106 -3 -136 -15 -146 -20
-17 -19 -66 3 -82 15 -11 17 -32 18 -145 1 -131 -3 -145 -32 -125 -17 11 -28
619 -11 625 35 15 37 9 37 -127z m1647 82 c-36 -57 -51 -183 -28 -227 8 -13 8
-21 2 -21 -19 0 -41 58 -41 107 0 55 29 125 67 166 37 38 37 35 0 -25z m-1735
-270 c3 -322 6 -294 -22 -275 -40 28 -30 557 11 557 4 0 9 -127 11 -282z
m1873 242 c-3 -5 -10 -10 -16 -10 -5 0 -9 5 -9 10 0 6 7 10 16 10 8 0 12 -4 9
-10z m-1510 -59 c-13 -32 -7 -304 7 -312 14 -9 -12 -68 -40 -92 -13 -10 -14
-6 -9 37 4 27 7 135 7 240 l1 191 20 -24 c11 -13 17 -31 14 -40z m347 42 c22
-19 24 -66 4 -83 -44 -36 -95 25 -62 74 19 30 32 32 58 9z m-793 -298 c1 -98
-2 -146 -9 -139 -10 10 -20 390 -11 400 10 10 19 -106 20 -261z m1881 251 c0
-8 -4 -18 -10 -21 -5 -3 -10 3 -10 14 0 12 5 21 10 21 6 0 10 -6 10 -14z
m-2229 -30 c14 -30 4 -76 -16 -76 -26 0 -41 46 -25 75 17 31 27 32 41 1z
m2296 7 c-4 -3 -7 0 -7 7 0 7 3 10 7 7 3 -4 3 -10 0 -14z m14 -66 c-1 -12 -15
-9 -19 4 -3 6 1 10 8 8 6 -3 11 -8 11 -12z m-1461 -72 c0 -27 -5 -57 -10 -65
-7 -10 -10 10 -10 65 0 55 3 75 10 65 5 -8 10 -37 10 -65z m1377 68 c-4 -3
-10 -3 -14 0 -3 4 0 7 7 7 7 0 10 -3 7 -7z m-1122 -63 c39 0 61 6 89 25 44 30
45 30 41 8 -2 -10 -4 -30 -4 -44 -1 -24 -6 -27 -45 -33 -24 -4 -52 -13 -62
-21 -11 -8 -27 -15 -37 -15 -9 0 -25 -4 -35 -10 -9 -5 -29 -14 -43 -19 -21 -8
-31 -22 -44 -66 -10 -30 -21 -58 -26 -60 -4 -3 2 21 13 52 13 35 23 93 26 144
l4 87 36 -24 c26 -18 48 -24 87 -24z m-816 -42 l-1 -53 -10 38 c-6 20 -7 44
-4 52 10 28 16 15 15 -37z m1881 7 c0 -3 -2 -5 -5 -5 -3 0 -5 2 -5 5 0 3 2 5
5 5 3 0 5 -2 5 -5z m-1996 -223 c22 -15 41 -33 44 -39 5 -18 -20 -16 -44 2
-10 8 -31 15 -46 15 -15 0 -39 5 -55 11 l-28 11 30 14 c42 19 55 17 99 -14z
m151 -74 c15 -11 52 -32 84 -44 l56 -24 -114 0 -113 0 6 25 c6 24 34 62 47 64
4 1 19 -9 34 -21z m-185 -12 c42 -12 45 -16 45 -47 l0 -33 -55 3 c-68 3 -70 5
-70 45 0 51 7 54 80 32z m284 -168 c184 -1 255 -4 206 -8 -167 -16 -556 -11
-571 7 -13 15 -10 16 35 10 27 -4 175 -8 330 -9z m426 -118 c0 -5 -17 -10 -37
-10 -21 0 -140 -5 -265 -11 -233 -12 -278 -9 -278 16 0 13 41 15 290 15 187 0
290 -4 290 -10z m34 -59 c6 -9 -135 -21 -250 -21 -136 0 -91 19 53 23 76 1
150 4 165 5 15 1 29 -2 32 -7z m-456 -28 c-10 -2 -28 -2 -40 0 -13 2 -5 4 17
4 22 1 32 -1 23 -4z m592 -32 c0 -10 -50 -17 -193 -26 -69 -4 -88 -2 -85 7 3
9 36 15 99 19 162 9 179 9 179 0z m75 -70 c15 -6 2 -10 -45 -16 -49 -5 -74 -3
-100 8 l-35 15 80 0 c44 1 89 -3 100 -7z m-302 -22 c31 -7 54 -15 52 -19 -4
-7 -63 -24 -76 -22 -4 1 -38 6 -75 12 -38 5 -85 13 -104 17 l-35 7 40 6 c65
11 138 11 198 -1z m434 -25 c-5 -6 -197 -43 -221 -44 -6 0 -6 4 0 10 9 9 77
21 218 39 5 0 7 -2 3 -5z m-267 -43 c0 -10 -22 -16 -92 -26 -49 -7 -71 10 -25
19 12 3 31 7 42 9 37 8 75 7 75 -2z m355 -21 c95 -23 -197 -70 -315 -51 l-45
7 55 12 c150 33 256 44 305 32z m127 -55 c-23 -8 -64 -16 -90 -19 -36 -4 -30
-1 28 13 87 22 125 25 62 6z m-142 -30 c0 -3 -2 -5 -5 -5 -3 0 -5 2 -5 5 0 3
2 5 5 5 3 0 5 -2 5 -5z m310 -24 c34 -7 31 -8 -65 -43 -55 -20 -107 -39 -115
-42 -11 -5 -18 4 -27 31 -6 21 -11 38 -10 38 1 1 29 8 62 16 57 15 77 15 155
0z m-622 2 c-10 -2 -26 -2 -35 0 -10 3 -2 5 17 5 19 0 27 -2 18 -5z m92 -13
l25 -8 -25 0 c-14 0 -36 4 -50 8 l-25 8 25 0 c14 0 36 -4 50 -8z m652 -42 c3
-7 -26 -22 -71 -38 -42 -15 -100 -37 -129 -49 -46 -18 -53 -19 -59 -6 -7 20
-17 15 117 62 130 46 137 48 142 31z m65 -50 c12 -10 8 -33 -10 -55 -7 -10
-14 -7 -27 10 -23 27 -48 16 -69 -31 -15 -32 -41 -44 -41 -18 0 8 -2 20 -5 28
-4 9 13 23 50 41 30 15 55 31 55 37 0 10 27 3 47 -12z m593 -238 c0 -153 -4
-240 -10 -240 -6 0 -10 87 -10 240 0 153 4 240 10 240 6 0 10 -87 10 -240z
m-486 -62 c6 -185 5 -218 -7 -218 -9 0 -17 15 -21 38 -8 51 -8 402 1 443 l7
34 7 -40 c3 -22 9 -138 13 -257z m388 170 c3 -35 3 -66 1 -70 -2 -5 -73 -8
-157 -8 l-153 0 -6 57 c-3 32 -2 62 3 67 7 7 10 0 10 -17 l0 -27 128 6 c142 6
155 9 150 27 -3 8 -38 14 -104 18 l-99 5 111 2 112 2 4 -62z m-732 32 c0 -14
-46 -31 -65 -24 -22 9 -18 22 8 27 41 8 57 7 57 -3z m1200 -118 c0 -126 -17
-138 -22 -16 -4 104 -3 118 13 109 5 -4 9 -45 9 -93z m-119 -23 c6 -107 2
-126 -25 -116 -17 7 -25 205 -9 221 19 19 28 -9 34 -105z m-188 -218 c-14 -23
-29 224 -17 276 7 29 10 3 14 -117 3 -85 4 -157 3 -159z m57 198 c0 -71 -4
-108 -10 -104 -11 7 -14 198 -3 208 12 13 13 7 13 -104z m-1753 54 c-4 -3 -7
0 -7 7 0 7 3 10 7 7 3 -4 3 -10 0 -14z m935 -103 c3 -79 0 -95 -12 -95 -14 0
-34 198 -21 211 17 17 31 -32 33 -116z m-583 -35 c5 -71 7 -132 5 -134 -14
-15 -22 30 -27 148 -7 170 9 160 22 -14z m446 83 c12 -112 5 -142 -32 -146
-27 -3 -32 0 -37 25 -5 25 -10 155 -7 176 1 4 16 7 35 7 l34 0 7 -62z m-177
-55 l3 -103 -30 0 c-36 0 -39 9 -42 115 -2 103 -4 97 34 93 l32 -3 3 -102z
m-344 60 c16 -108 12 -198 -9 -201 -38 -4 -43 10 -45 118 -3 129 -5 120 24
120 20 0 25 -6 30 -37z m170 -15 c11 -96 8 -158 -10 -165 -26 -10 -31 7 -37
115 -6 102 -6 102 17 102 21 0 24 -6 30 -52z m-333 -59 c1 -49 2 -99 2 -111 1
-18 -4 -23 -23 -23 -25 0 -25 2 -32 110 -7 124 -7 124 27 117 24 -4 25 -6 26
-93z m1105 -56 l7 -96 161 6 c100 3 146 2 121 -3 -22 -5 -99 -9 -171 -9 l-131
-1 -7 61 c-3 34 -6 89 -5 123 1 90 17 39 25 -81z m-356 -38 c0 -3 -2 -5 -5 -5
-3 0 -5 2 -5 5 0 3 2 5 5 5 3 0 5 -2 5 -5z m894 -36 c-3 -5 -10 -7 -15 -3 -5
3 -7 10 -3 15 3 5 10 7 15 3 5 -3 7 -10 3 -15z m131 11 c3 -5 -3 -10 -14 -10
-12 0 -21 5 -21 10 0 6 6 10 14 10 8 0 18 -4 21 -10z m-818 -57 c-3 -10 -5 -4
-5 12 0 17 2 24 5 18 2 -7 2 -21 0 -30z m-124 -4 c3 -12 0 -22 -9 -26 -21 -8
-37 11 -29 35 7 25 31 19 38 -9z m-139 3 c9 -15 -9 -28 -41 -30 -27 -2 -33 1
-33 18 0 21 62 31 74 12z m-784 -18 c0 -8 -5 -12 -10 -9 -6 4 -8 11 -5 16 9
14 15 11 15 -7z m340 -9 c0 -26 -14 -33 -25 -15 -9 14 1 40 15 40 5 0 10 -11
10 -25z m-75 -15 c4 -6 -7 -10 -24 -10 -17 0 -31 5 -31 10 0 6 11 10 24 10 14
0 28 -4 31 -10z m-165 -25 c11 -13 8 -15 -19 -15 -31 0 -42 14 -18 23 20 9 24
8 37 -8z"/>
<path d="M5173 1643 c-22 -8 -14 -32 13 -39 28 -7 203 1 211 10 3 3 3 12 0 21
-6 15 -191 22 -224 8z"/>
<path d="M5570 2833 c-20 -26 -21 -26 -55 -10 -39 19 -65 13 -65 -14 0 -27 39
-49 90 -49 52 0 119 53 107 84 -10 25 -53 19 -77 -11z"/>
<path d="M2807 2626 c-20 -14 -44 -23 -52 -20 -8 3 -35 -6 -59 -20 -25 -14
-50 -26 -57 -26 -7 0 -21 -8 -31 -17 -18 -16 -21 -16 -47 0 -16 9 -43 17 -60
17 -16 0 -41 5 -55 11 -26 12 -80 -5 -118 -39 -18 -15 -25 -51 -10 -53 4 0 26
-2 49 -5 35 -3 44 0 53 16 8 16 15 18 35 10 14 -5 31 -7 39 -4 8 3 25 -1 38
-10 40 -28 76 -21 189 39 14 8 35 11 48 8 15 -4 30 2 46 17 l25 23 19 -25 c11
-14 34 -31 50 -37 66 -28 110 12 52 47 -17 10 -41 34 -54 53 -29 43 -53 47
-100 15z"/>
<path d="M2063 2504 c-10 -26 14 -38 87 -42 87 -5 120 2 120 27 0 26 -19 31
-116 31 -68 0 -86 -3 -91 -16z"/>
<path d="M5434 2485 c-4 -8 -12 -15 -19 -15 -6 0 -20 -9 -30 -20 -10 -11 -28
-20 -41 -20 -32 0 -84 -47 -84 -76 0 -36 25 -40 61 -10 17 14 40 26 51 26 11
0 33 8 49 17 27 16 29 16 52 -5 13 -12 33 -22 45 -22 31 0 29 40 -4 71 -14 13
-30 34 -35 47 -10 25 -37 30 -45 7z"/>
<path d="M746 2458 c-22 -31 -21 -104 0 -112 22 -9 44 11 44 40 0 24 1 24 25
8 28 -18 55 -13 55 11 0 8 6 24 12 35 18 28 -4 50 -32 32 -12 -7 -21 -8 -25
-2 -12 19 -63 11 -79 -12z"/>
<path d="M5164 2425 c-4 -9 -2 -21 4 -27 15 -15 44 -1 40 19 -4 23 -36 29 -44
8z"/>
<path d="M972 2409 c-17 -6 -22 -15 -20 -31 4 -32 66 -38 92 -9 35 38 -13 64
-72 40z"/>
<path d="M5065 2390 c-10 -11 -30 -20 -44 -20 -34 0 -130 -67 -137 -96 -14
-56 24 -58 89 -4 41 33 53 38 79 33 25 -5 34 -1 49 18 l19 24 20 -25 c11 -14
20 -33 20 -43 0 -26 28 -32 50 -12 30 27 25 47 -25 98 -50 53 -89 61 -120 27z"/>
<path d="M1132 2364 c-49 -34 -16 -83 38 -54 16 9 18 4 22 -55 4 -68 25 -105
59 -105 35 0 97 -31 102 -51 10 -38 52 -21 52 21 0 41 -40 73 -104 84 -45 7
-52 19 -50 89 3 77 -58 114 -119 71z"/>
<path d="M2280 2343 c-8 -4 -29 -17 -46 -30 -17 -12 -35 -23 -41 -23 -6 0 -26
-11 -45 -23 -39 -27 -94 -41 -103 -27 -9 15 -35 12 -41 -5 -9 -22 36 -65 67
-65 15 0 51 13 81 28 30 16 66 32 80 35 14 4 33 18 42 32 14 21 24 25 65 25
56 0 82 19 61 45 -12 15 -88 20 -120 8z"/>
<path d="M5830 2266 c-14 -8 -32 -26 -40 -40 -7 -14 -22 -26 -32 -26 -94 0
-112 -96 -32 -171 13 -12 24 -34 24 -48 0 -50 11 -72 34 -69 18 3 21 11 24 66
3 61 2 64 -33 96 -44 41 -44 52 3 63 25 6 43 19 57 40 12 19 29 32 41 33 30 0
57 24 53 46 -5 24 -63 30 -99 10z"/>
<path d="M387 2046 c-49 -45 -46 -111 4 -111 16 0 25 7 27 20 7 45 10 46 68
14 31 -16 63 -28 70 -25 18 7 18 35 0 42 -8 3 -33 23 -56 45 -47 45 -76 49
-113 15z"/>
<path d="M1608 1995 c-79 -26 -61 -68 34 -81 49 -7 67 -18 91 -55 17 -25 16
-27 -18 -70 -31 -39 -35 -51 -35 -103 0 -83 -29 -195 -54 -211 -31 -19 -96
-27 -96 -11 0 7 -11 22 -25 34 -16 14 -25 32 -25 50 0 32 -16 52 -42 52 -22 0
-38 -29 -38 -70 0 -50 -16 -70 -55 -70 -25 0 -35 5 -40 20 -16 50 -85 37 -85
-16 0 -22 -2 -23 -21 -14 -15 9 -24 8 -35 -1 -11 -9 -18 -8 -33 5 -26 24 -65
17 -69 -11 -2 -13 -8 -23 -13 -23 -14 0 -10 -62 6 -90 8 -14 14 -29 15 -33 0
-7 -60 -37 -74 -37 -3 0 -15 27 -27 61 -26 72 -57 98 -95 81 -13 -7 -27 -19
-31 -27 -15 -41 218 -613 264 -647 31 -22 46 -68 25 -74 -9 -3 -34 -14 -54
-24 -45 -24 -64 -25 -86 -4 -35 35 -175 9 -369 -69 l-62 -25 -37 29 c-45 36
-73 37 -104 4 -15 -16 -34 -25 -54 -25 -17 0 -60 -10 -96 -21 -54 -17 -79 -19
-147 -14 -107 9 -123 3 -123 -42 0 -30 3 -34 18 -27 41 18 77 10 80 -17 2 -16
13 -32 28 -39 13 -7 24 -19 24 -26 0 -8 11 -20 25 -29 86 -52 80 -46 60 -61
-11 -8 -44 -14 -82 -14 -50 0 -65 -4 -70 -16 -21 -56 150 -60 199 -5 32 36 35
57 12 89 -12 17 -12 22 -2 22 7 0 23 3 36 6 18 5 22 2 22 -18 0 -43 40 -69
125 -81 l76 -11 -6 -36 c-12 -64 -44 -76 -112 -43 -26 12 -40 14 -52 6 -13 -9
-20 -5 -37 15 -29 35 -59 24 -50 -19 6 -34 54 -110 72 -116 7 -2 19 4 29 13
10 11 36 19 67 20 28 2 60 7 72 10 11 4 60 6 108 5 47 -1 135 5 195 13 231 32
297 37 306 21 14 -25 83 -19 108 9 12 14 28 22 35 19 8 -3 22 -1 31 3 10 5 47
9 83 9 63 0 65 1 65 25 0 20 -6 26 -30 28 -16 2 -38 11 -48 19 -13 13 -22 14
-41 5 -22 -10 -25 -8 -30 14 -12 46 -76 7 -99 -59 -3 -9 -7 -9 -18 -1 -26 22
-78 27 -85 10 -4 -11 -19 -16 -44 -16 -22 0 -112 -9 -202 -20 -275 -34 -256
-33 -262 -13 -2 10 -2 36 2 58 l7 40 125 6 c79 4 139 12 163 22 65 28 61 71
-8 95 -21 7 -45 22 -53 33 -8 11 -23 24 -33 28 -17 6 -10 13 41 49 36 24 67
39 73 35 23 -15 62 -10 84 10 18 16 25 18 38 7 19 -16 42 -7 56 24 18 38 40
43 28 6 -18 -49 50 -136 99 -127 21 4 22 3 9 -17 -20 -31 -95 -66 -143 -66
-80 0 -107 -40 -40 -59 96 -26 246 55 246 134 l0 30 13 -25 c12 -24 17 -25 94
-25 l81 0 -5 -32 c-6 -36 31 -67 95 -79 31 -6 33 -8 25 -38 -29 -118 -13 -133
109 -101 84 22 112 75 40 75 -16 0 -40 11 -56 26 l-28 27 33 14 c40 17 45 24
53 75 6 34 8 37 26 28 10 -5 39 -10 64 -10 34 0 46 -4 46 -15 0 -11 -11 -15
-37 -15 -79 0 -120 -40 -57 -56 81 -21 154 11 154 67 0 14 6 32 14 39 8 6 16
25 18 42 4 42 21 45 35 8 11 -31 45 -50 87 -50 15 0 26 -7 29 -20 12 -46 106
-48 148 -4 12 13 30 24 38 24 9 1 27 7 40 14 17 9 33 11 50 5 15 -5 39 -5 56
-1 20 6 43 4 70 -6 35 -13 117 -21 258 -25 23 -1 44 5 54 16 16 16 20 12 58
-61 41 -80 71 -103 82 -63 6 23 18 27 28 11 11 -18 47 -11 52 10 5 17 14 20
67 20 33 0 91 9 128 19 79 23 220 42 303 41 173 -2 220 1 325 21 70 13 188 25
299 30 l184 8 31 30 31 30 33 -40 c24 -28 39 -38 52 -34 10 3 21 1 25 -5 12
-20 48 -9 82 25 19 19 39 33 43 30 4 -3 36 2 71 9 35 8 124 21 197 30 145 16
197 35 170 63 -14 13 -270 -9 -372 -32 -24 -6 -63 23 -68 50 -3 16 10 17 185
16 l187 -2 0 43 c1 37 5 46 33 63 18 11 33 30 35 43 3 17 10 22 35 22 29 0 30
-1 11 -15 -29 -22 -4 -32 62 -25 66 7 89 31 65 69 -22 35 -353 45 -371 12 -27
-51 7 -131 56 -131 15 0 24 -6 24 -15 0 -17 -31 -20 -46 -5 -5 5 -44 13 -87
16 l-76 7 25 44 c15 24 24 49 21 57 -4 9 4 16 23 19 48 10 52 107 5 129 -55
25 -172 -44 -159 -95 3 -14 1 -28 -5 -31 -14 -9 -14 -60 -2 -104 8 -26 7 -34
-5 -38 -7 -2 -22 -7 -31 -10 -28 -11 -153 -15 -153 -5 0 4 9 16 21 26 12 12
19 29 17 45 -1 16 6 34 20 48 18 18 22 30 17 54 -6 23 -3 33 14 44 12 9 21 24
21 35 0 13 7 19 24 19 34 0 89 20 106 39 16 18 134 46 150 36 6 -3 10 -13 10
-20 0 -29 41 -44 94 -34 74 14 92 35 60 70 -22 24 1 62 50 86 44 21 75 12 109
-32 l28 -35 -22 -29 c-18 -25 -21 -38 -15 -77 10 -75 27 -94 85 -94 58 0 81
21 81 73 0 41 1 42 53 51 32 6 40 3 61 -19 19 -21 33 -25 82 -26 l59 -1 -54
-8 c-63 -10 -102 -35 -116 -77 -5 -16 -18 -37 -27 -47 -24 -23 -23 -51 3 -77
34 -34 142 -24 178 17 26 28 27 29 82 19 53 -9 56 -11 46 -32 -9 -21 -17 -23
-84 -23 -41 0 -83 -5 -94 -11 -11 -5 -63 -18 -117 -29 -53 -10 -104 -21 -113
-25 -11 -4 -18 1 -22 16 -5 18 -11 21 -36 16 -20 -4 -31 -2 -35 8 -9 24 -34
17 -49 -12 -14 -26 -15 -26 -21 -5 -10 29 -44 48 -59 33 -15 -15 30 -150 52
-159 8 -3 32 5 53 17 21 12 43 19 49 15 10 -6 198 32 304 62 31 9 112 16 217
17 208 4 217 8 217 97 -1 66 -17 80 -74 66 -31 -8 -31 -18 -3 -57 32 -43 2
-59 -79 -43 l-30 6 23 23 c43 43 24 57 -97 70 -50 5 -56 9 -52 25 5 18 7 18
26 5 27 -19 91 -19 107 -1 6 8 28 20 48 27 20 6 47 20 58 31 15 14 29 17 48
12 24 -6 26 -4 26 25 0 21 -5 31 -15 31 -20 0 -19 24 1 40 24 21 14 73 -16 80
-36 8 -34 44 3 48 23 3 27 8 27 34 0 28 -2 30 -27 24 -49 -12 -205 -28 -288
-30 -45 -1 -86 -5 -92 -9 -6 -4 -24 -2 -39 3 -21 8 -32 7 -51 -5 -22 -15 -26
-14 -50 5 -30 24 -39 24 -74 6 -35 -18 -133 -12 -167 11 -38 25 -114 23 -151
-5 -24 -18 -30 -19 -35 -7 -7 18 -67 20 -83 4 -7 -7 -41 -11 -87 -10 -58 2
-87 -3 -122 -19 -40 -17 -52 -18 -79 -9 -28 10 -39 9 -79 -11 -43 -21 -48 -21
-65 -6 -24 21 -33 20 -93 -10 l-51 -26 -43 22 c-45 22 -76 21 -152 -2 -24 -7
-41 -7 -63 2 -23 10 -33 10 -51 -2 -19 -12 -27 -12 -48 -1 -14 7 -56 13 -93
13 -64 0 -69 -2 -84 -27 -14 -25 -22 -28 -72 -30 -31 -1 -78 -3 -105 -5 l-49
-3 -12 50 c-11 41 -24 60 -75 106 l-62 57 11 35 c7 20 15 64 19 98 l7 63 78
19 77 19 21 -26 c22 -28 81 -36 120 -16 30 17 25 82 -16 183 -19 48 -35 95
-35 104 -1 39 -38 124 -62 143 -33 25 -39 25 -74 -2 -17 -14 -44 -24 -69 -25
-76 -3 -146 -19 -173 -41 -15 -12 -52 -36 -82 -52 -30 -17 -75 -44 -100 -60
-84 -54 -178 -77 -350 -84 -182 -8 -218 -16 -268 -59 -20 -18 -50 -39 -65 -47
-26 -13 -39 -25 -105 -105 -28 -33 -73 -31 -170 7 l-57 23 3 41 c3 40 -9 62
-40 69 -79 17 -78 16 -78 49 0 38 -25 195 -34 216 -4 10 6 23 30 38 56 37 45
66 -26 70 -41 2 -76 13 -138 44 -97 49 -188 60 -274 33z m264 -93 c42 -20 77
-40 77 -44 1 -6 -122 -68 -136 -68 -4 0 2 6 12 14 20 15 15 46 -9 46 -8 0 -18
9 -21 20 -4 11 -18 34 -33 52 l-27 31 30 -7 c17 -4 65 -24 107 -44z m1643
-126 c-16 -13 -35 -22 -42 -19 -7 3 -32 -11 -56 -31 -24 -20 -53 -36 -64 -36
-11 0 -26 -11 -33 -25 -10 -18 -19 -24 -32 -19 -11 3 -25 1 -32 -5 -13 -11
-46 -5 -46 8 0 9 102 61 121 61 8 0 30 16 49 35 24 24 43 35 64 36 17 0 40 4
51 9 40 17 50 10 20 -14z m92 -3 c-4 -3 -7 0 -7 7 0 7 3 10 7 7 3 -4 3 -10 0
-14z m-1764 -52 c-18 -15 -33 -32 -33 -38 0 -6 -7 -16 -15 -23 -12 -10 -15 -9
-15 8 0 35 12 54 44 68 48 21 54 16 19 -15z m91 -7 c9 -9 24 -17 34 -18 13 -2
18 -15 20 -54 5 -81 -15 -71 -55 28 -29 70 -29 74 1 44z m1746 -4 c0 -5 -7
-10 -15 -10 -8 0 -15 -5 -15 -11 0 -5 -5 -7 -12 -3 -7 5 -5 11 7 21 22 16 35
17 35 3z m-144 -44 c-9 -19 -16 -38 -16 -43 0 -5 -13 -24 -28 -43 -16 -19 -34
-45 -41 -57 -16 -30 -32 -29 -65 5 -24 26 -25 30 -11 42 8 7 15 19 15 26 0 8
6 14 14 14 7 0 19 7 26 15 7 8 21 15 31 15 11 0 24 10 30 23 9 20 48 47 58 40
2 -1 -4 -18 -13 -37z m-1641 -66 c15 -34 16 -46 7 -77 -13 -44 -2 -63 35 -63
16 0 27 7 30 20 8 29 103 30 103 2 0 -14 -12 -21 -52 -30 -29 -6 -72 -16 -96
-23 -52 -16 -64 -7 -90 72 l-18 56 23 34 c13 18 23 39 23 47 0 22 15 5 35 -38z
m1821 25 c9 -37 -4 -44 -26 -15 -25 32 -25 40 0 40 13 0 22 -9 26 -25z m-102
-20 c3 -8 1 -15 -4 -15 -6 0 -10 7 -10 15 0 8 2 15 4 15 2 0 6 -7 10 -15z
m-530 -107 c6 -54 -6 -89 -18 -51 -19 59 -26 127 -14 134 16 10 23 -9 32 -83z
m-117 -8 c6 -36 8 -68 5 -71 -8 -8 -342 -49 -396 -49 l-39 0 6 41 c13 100 120
149 317 145 l95 -1 12 -65z m618 50 c6 -10 -54 -25 -62 -16 -3 3 -1 12 6 20
12 14 47 11 56 -4z m-369 -21 c3 -6 16 -8 28 -5 21 5 55 -28 42 -41 -15 -16
-110 -7 -114 10 -8 38 25 65 44 36z m-1497 -71 c1 -10 -3 -18 -9 -18 -5 0 -10
17 -9 38 0 38 17 21 18 -20z m1702 -25 c13 -16 12 -17 -3 -4 -17 13 -22 21
-14 21 2 0 10 -8 17 -17z m-43 -42 c51 -45 50 -73 -3 -107 -30 -20 -32 -20
-28 -3 7 27 -23 35 -48 13 -24 -22 -76 -111 -100 -173 l-18 -46 -1 84 c0 83 0
83 -25 79 -26 -5 -29 -1 -40 62 l-6 35 63 0 c61 0 63 1 66 28 2 18 -2 29 -12
33 -40 15 -7 30 69 32 33 1 48 -6 83 -37z m-2023 19 c-3 -5 -15 -10 -26 -10
-11 0 -17 5 -14 10 3 6 15 10 26 10 11 0 17 -4 14 -10z m723 2 c7 -5 30 -51
51 -103 l39 -94 -29 -33 c-16 -18 -29 -41 -29 -51 0 -14 -14 -22 -65 -35 -75
-19 -85 -19 -85 -6 0 5 7 7 15 4 9 -4 21 5 32 23 11 17 25 27 35 25 23 -4 36
23 49 108 13 84 7 120 -20 120 -15 0 -21 -10 -26 -40 -4 -22 -11 -37 -16 -34
-17 10 -39 -17 -39 -47 0 -15 -4 -31 -10 -34 -5 -3 -10 -1 -10 4 0 6 -9 11
-21 11 -16 0 -19 4 -14 18 4 9 10 36 12 60 8 65 -25 59 -52 -10 -25 -65 -37
-63 -52 9 -16 78 -17 101 -1 85 18 -18 87 -14 143 8 55 21 74 24 93 12z m392
-13 c-7 -11 -14 -18 -17 -15 -3 3 0 12 7 21 18 21 23 19 10 -6z m-730 -30 c0
-5 -8 -9 -17 -9 -21 0 -670 -145 -695 -155 -11 -4 -18 -3 -18 4 0 6 8 11 18
11 9 0 42 14 72 32 30 17 78 44 105 59 30 17 65 29 88 29 21 0 65 9 97 20 51
17 76 19 168 15 59 -4 121 -2 137 3 32 10 45 7 45 -9z m-594 0 c7 -12 -15 -31
-28 -23 -4 3 -8 12 -8 20 0 17 26 19 36 3z m1613 -33 c-2 -2 -48 -22 -101 -44
l-97 -40 -10 31 c-14 39 -16 38 81 47 112 10 132 11 127 6z m274 -69 l6 -59
-27 7 c-15 4 -58 13 -96 19 -106 18 -99 36 33 81 77 27 77 27 84 -48z m-813
48 c14 -8 46 -14 73 -15 l47 0 0 -64 c0 -63 -1 -64 -31 -75 -43 -15 -59 -14
-59 4 0 9 -6 26 -14 38 -21 32 -57 127 -48 127 4 -1 18 -7 32 -15z m228 -45
c3 -43 -1 -57 -14 -67 -35 -25 -47 -16 -41 30 12 104 50 129 55 37z m-694 3
c4 -27 9 -56 12 -65 4 -14 -1 -18 -23 -18 -35 0 -106 -19 -114 -31 -3 -5 -20
-4 -39 1 -19 6 -53 10 -75 11 -30 1 -8 9 90 33 100 24 131 35 133 49 6 28 -52
21 -322 -39 -258 -58 -316 -75 -316 -94 0 -24 71 -16 235 25 19 5 19 5 1 -7
-10 -7 -38 -27 -60 -44 -33 -24 -49 -30 -78 -26 -21 2 -57 -3 -82 -11 l-45
-15 -19 57 -19 57 201 43 c110 24 266 60 346 81 80 20 150 38 156 39 7 0 15
-20 18 -46z m753 -40 c-4 -3 -7 0 -7 7 0 7 3 10 7 7 3 -4 3 -10 0 -14z m255
-30 c-11 -21 -58 -81 -105 -133 -46 -52 -89 -106 -96 -118 -7 -13 -15 -22 -17
-19 -7 7 18 71 35 91 11 12 16 39 17 83 l1 65 89 38 c103 44 102 44 76 -7z
m703 -24 c63 -51 79 -69 39 -41 -16 11 -50 28 -75 38 -55 22 -57 23 -39 34 21
14 20 14 75 -31z m-1540 -51 c0 -41 -4 -59 -14 -63 -21 -8 -28 4 -36 68 l-7
58 29 -3 c27 -3 28 -5 28 -60z m995 46 c36 -8 98 -15 138 -16 82 0 76 10 63
-106 -10 -82 -38 -125 -66 -102 -11 9 -36 10 -105 2 -106 -13 -112 -11 -135
32 -16 29 -17 40 -6 102 22 120 12 112 111 88z m-720 -14 c0 -5 -5 -10 -11
-10 -5 0 -7 5 -4 10 3 6 8 10 11 10 2 0 4 -4 4 -10z m1210 -43 c49 -24 86 -49
88 -59 5 -24 -81 -49 -184 -54 l-86 -4 7 38 c4 20 16 58 27 85 24 56 21 56
148 -6z m-1605 -95 c4 -17 -10 -7 -57 40 l-63 63 45 15 45 15 12 -55 c7 -30
15 -65 18 -78z m745 96 c0 -17 -11 -51 -25 -74 -14 -24 -28 -65 -31 -91 -10
-92 -9 -90 -66 -98 -70 -10 -140 -10 -210 0 -46 6 -62 4 -82 -9 -35 -22 -36
-21 -36 22 0 38 1 38 53 51 87 22 100 35 95 91 -5 48 -5 48 32 59 46 14 53 14
45 0 -4 -5 -9 -38 -11 -72 -2 -34 -12 -77 -21 -95 -14 -26 -15 -34 -5 -41 16
-10 125 10 145 27 24 20 57 115 64 186 3 33 11 64 17 68 23 16 36 7 36 -24z
m3327 5 c5 -15 -58 -33 -122 -33 -27 0 -69 -5 -93 -10 -51 -12 -66 -6 -52 21
9 16 22 19 93 20 45 1 93 5 107 9 33 11 62 8 67 -7z m-441 -26 c5 -15 0 -26
-16 -39 -36 -29 -53 -24 -45 15 13 58 46 71 61 24z m-2989 -12 c-5 -30 -34
-75 -40 -64 -1 2 -8 14 -14 26 -20 34 -16 50 15 61 42 16 45 14 39 -23z m2447
26 c3 -4 -20 -15 -52 -23 -31 -8 -65 -19 -75 -23 -16 -6 -18 -4 -15 16 4 32
125 58 142 30z m423 -45 c-11 -27 -27 -17 -27 16 0 30 1 31 16 16 9 -9 14 -24
11 -32z m223 14 c0 -25 -4 -30 -25 -30 -19 0 -23 4 -18 18 17 48 43 55 43 12z
m-4046 -54 c-8 -70 -15 -70 -35 -2 l-16 55 26 3 c14 2 27 3 29 2 1 -1 0 -27
-4 -58z m3173 47 c38 -9 36 -33 -4 -49 -35 -15 -36 -15 -59 13 -25 31 -8 61
26 47 8 -4 25 -9 37 -11z m-3059 -18 c5 -4 -41 -85 -48 -85 -3 0 -3 23 -2 50
4 48 21 60 50 35z m1137 -5 c-3 -10 -2 -35 4 -55 11 -40 4 -44 -27 -15 -27 26
-27 31 -1 64 24 31 33 33 24 6z m1254 -2 c4 -13 11 -38 15 -57 6 -33 6 -33
-26 -27 -123 24 -158 106 -47 106 42 0 51 -3 58 -22z m326 -9 c44 -39 39 -48
-22 -41 -48 5 -115 55 -89 66 34 14 77 4 111 -25z m185 16 c10 -12 9 -15 -4
-15 -9 0 -19 -7 -22 -15 -9 -23 -74 -20 -74 3 0 35 77 55 100 27z m468 -8 c2
-10 -3 -17 -11 -17 -16 0 -30 24 -19 34 10 10 27 1 30 -17z m-869 -18 c16 -47
14 -70 -9 -76 -30 -8 -34 -2 -31 47 4 70 21 82 40 29z m1817 20 c3 -6 1 -16
-5 -22 -6 -6 -11 -19 -11 -29 0 -14 -8 -18 -42 -18 -39 0 -40 1 -25 18 10 10
17 24 17 30 0 24 53 41 66 21z m-4526 -35 c16 -48 7 -53 -19 -11 -25 41 -26
47 -7 47 8 0 20 -16 26 -36z m793 4 c8 -29 18 -24 -129 -63 -157 -42 -154 -42
-154 -5 0 17 6 32 13 34 24 7 242 54 253 55 7 1 14 -9 17 -21z m3582 12 c-3
-5 -22 -10 -41 -10 -19 0 -34 5 -34 10 0 6 18 10 41 10 24 0 38 -4 34 -10z
m-4606 -56 c-16 -31 -29 -62 -29 -70 0 -31 -17 -11 -33 39 -22 69 -22 67 11
68 15 0 36 4 47 9 34 15 35 11 4 -46z m2603 31 c0 -5 -5 -11 -11 -13 -6 -2
-11 4 -11 13 0 9 5 15 11 13 6 -2 11 -8 11 -13z m1858 5 c-8 -5 -28 -10 -45
-10 -23 0 -27 3 -15 10 8 5 29 10 45 10 23 0 27 -3 15 -10z m-3924 -48 c-8
-13 -96 -65 -102 -60 -2 3 13 28 33 57 36 51 37 52 56 32 11 -10 17 -24 13
-29z m1937 32 c3 -3 -5 -16 -19 -28 -22 -18 -35 -21 -100 -18 -108 5 -95 26
26 42 78 10 86 11 93 4z m608 -52 c34 3 39 0 53 -29 20 -43 3 -53 -33 -19 -15
14 -37 26 -48 26 -50 0 -72 37 -40 69 10 10 14 6 21 -19 9 -29 12 -32 47 -28z
m304 20 c-8 -9 -35 20 -28 31 4 6 11 3 19 -8 8 -10 12 -21 9 -23z m753 29 c21
-13 11 -55 -14 -59 -20 -3 -33 18 -34 56 0 14 28 16 48 3z m-3960 -57 c23 -30
39 -54 35 -54 -17 0 -133 44 -133 50 0 11 40 60 48 59 4 0 26 -25 50 -55z
m1362 -15 c33 -22 27 -26 -53 -31 -75 -4 -79 3 -35 64 l18 27 23 -22 c12 -12
33 -29 47 -38z m1165 32 c19 -17 51 -32 75 -36 25 -4 39 -12 37 -18 -3 -7 -10
-11 -18 -9 -14 4 -129 -15 -154 -24 -25 -10 -28 22 -6 70 24 54 24 54 66 17z
m613 -11 l23 -30 -51 -2 c-27 -1 -60 -2 -72 -2 -67 -2 -2 54 73 63 3 1 15 -12
27 -29z m1217 11 c-34 -21 -38 -21 -29 3 3 9 17 16 33 16 l26 0 -30 -19z
m-2448 -16 c4 -12 -114 -41 -124 -31 -9 9 1 16 44 32 42 15 75 15 80 -1z m128
6 c3 -5 1 -12 -4 -16 -13 -8 -61 5 -61 16 0 12 57 12 65 0z m348 -8 c-13 -2
-35 -2 -50 0 -16 2 -5 4 22 4 28 0 40 -2 28 -4z m2067 -23 c-25 -20 -67 -23
-63 -5 2 11 36 23 68 24 18 0 18 -1 -5 -19z m-984 -5 c-11 -8 -27 -15 -35 -15
-13 1 -12 4 3 15 11 8 27 15 35 15 13 -1 12 -4 -3 -15z m-3066 -31 c0 -9 -11
-14 -32 -14 l-33 0 25 19 c26 21 40 19 40 -5z m1187 11 c-11 -7 -38 -17 -60
-20 -49 -8 -87 -30 -87 -50 0 -7 -4 -17 -10 -20 -6 -4 -10 6 -10 23 0 32 39
55 125 72 58 11 62 11 42 -5z m701 -5 c79 -29 24 -59 -116 -62 l-97 -3 -3 30
c-6 46 19 58 108 52 41 -3 90 -11 108 -17z m520 -1 c49 -19 13 -39 -70 -39
-44 0 -48 2 -48 24 0 35 47 41 118 15z m1486 -3 c-6 -16 -52 -27 -60 -15 -3 5
-15 9 -26 9 -34 0 -11 13 35 20 49 7 58 5 51 -14z m-2300 -12 c39 -39 -7 -76
-118 -94 -39 -7 -81 -16 -93 -21 -27 -10 -28 -6 -11 56 11 40 15 45 43 46 16
0 55 7 85 14 76 17 77 17 94 -1z m396 1 c0 -8 -4 -15 -10 -15 -5 0 -10 7 -10
15 0 8 5 15 10 15 6 0 10 -7 10 -15z m-1714 -34 c13 -46 2 -51 -112 -51 -60 0
-64 2 -70 25 -8 34 -3 38 69 51 102 18 102 19 113 -25z m2489 19 c-9 -15 -77
-30 -130 -29 l-50 1 35 10 c19 6 44 14 55 19 42 18 101 17 90 -1z m-3230 -13
l30 -11 -45 -7 c-54 -8 -60 -5 -53 22 4 14 11 18 22 14 9 -4 30 -12 46 -18z
m1785 -1 c0 -21 -6 -25 -42 -31 -24 -3 -55 -8 -70 -11 -64 -12 -36 29 34 51
65 20 78 19 78 -9z m-355 -6 c8 -13 2 -15 -140 -35 -66 -9 -135 -19 -152 -22
-25 -4 -33 -1 -33 10 0 20 18 26 123 37 49 5 92 11 95 15 10 9 101 5 107 -5z
m1557 -17 c51 -49 39 -69 -43 -76 -103 -9 -143 -41 -102 -82 14 -15 15 -18 2
-25 -8 -5 -26 -32 -39 -59 -16 -34 -29 -51 -42 -51 -10 0 -26 -4 -36 -9 -16
-9 -285 -51 -325 -51 -26 0 -21 37 8 56 26 17 35 17 181 -2 65 -8 91 19 80 86
-3 22 -2 41 4 45 5 3 10 16 10 29 0 15 9 27 25 34 15 7 28 24 33 44 l8 33 76
3 c65 2 78 6 98 27 29 31 28 31 62 -2z m-300 -8 c26 -58 -53 -72 -103 -19 -29
31 -15 44 49 44 36 0 44 -4 54 -25z m788 -5 c-10 -18 -14 -20 -21 -9 -6 9 -3
18 8 26 22 17 27 10 13 -17z m-1880 -26 c0 -6 -6 -17 -14 -23 -16 -14 -34 39
-20 60 8 13 34 -15 34 -37z m2134 27 c16 -17 16 -19 -6 -25 -36 -9 -45 -7 -52
10 -14 36 29 47 58 15z m-2790 -2 c29 -14 49 -56 44 -95 -3 -27 -6 -29 -53
-32 -132 -8 -163 24 -91 94 49 47 61 51 100 33z m3345 -5 c6 -5 -48 -24 -70
-24 -21 0 -25 10 -8 27 10 10 65 8 78 -3z m-3811 -16 c-4 -27 -79 -31 -133 -8
l-30 13 30 7 c17 4 54 8 83 9 50 1 53 0 50 -21z m2050 5 c3 -9 -12 -13 -52
-13 -52 0 -66 7 -49 24 12 11 96 2 101 -11z m-1468 -38 c0 -25 -4 -45 -9 -45
-5 0 -11 20 -13 45 -2 31 1 45 9 45 9 0 13 -16 13 -45z m-984 17 c-3 -5 -28
-23 -56 -40 l-51 -32 -11 25 c-15 34 -11 36 115 54 5 0 6 -3 3 -7z m2064 -1
c0 -11 -39 -25 -47 -18 -3 3 -2 10 2 16 8 13 45 15 45 2z m-865 -21 c-3 -5
-14 -10 -23 -10 -15 0 -15 2 -2 10 20 13 33 13 25 0z m505 -5 c21 -25 -16
-103 -57 -120 -19 -8 -48 -26 -65 -40 -35 -29 -68 -32 -96 -7 -36 30 -31 53
18 82 26 15 47 35 50 50 9 37 126 64 150 35z m460 11 c0 -2 -9 -6 -20 -9 -11
-3 -20 -1 -20 4 0 5 9 9 20 9 11 0 20 -2 20 -4z m950 -5 c0 -18 -21 -23 -67
-16 -33 5 -42 9 -32 16 19 12 99 12 99 0z m-1697 -8 c-7 -2 -19 -2 -25 0 -7 3
-2 5 12 5 14 0 19 -2 13 -5z m902 -28 c0 -43 -29 -40 -33 3 -3 28 0 33 15 30
13 -2 18 -12 18 -33z m-1742 18 c-13 -2 -35 -2 -50 0 -16 2 -5 4 22 4 28 0 40
-2 28 -4z m-103 -13 c-36 -11 -52 -11 -45 0 3 6 21 10 38 9 31 -1 31 -1 7 -9z
m200 5 c0 -3 -2 -5 -5 -5 -3 0 -5 2 -5 5 0 3 2 5 5 5 3 0 5 -2 5 -5z m1207 -2
c-4 -3 -10 -3 -14 0 -3 4 0 7 7 7 7 0 10 -3 7 -7z m351 -40 c3 -42 -15 -73
-43 -73 -11 0 -13 9 -9 33 15 89 47 113 52 40z m-1766 -23 c48 21 218 27 218
7 0 -4 11 -13 25 -19 32 -14 32 -41 0 -62 -23 -15 -25 -15 -36 7 -19 35 -28
37 -131 31 -69 -5 -106 -3 -128 6 -41 17 -62 0 -37 -28 24 -26 13 -32 -65 -32
-61 0 -68 2 -68 20 0 17 -7 20 -41 20 -22 0 -49 5 -61 11 l-20 11 21 14 c12 8
48 19 81 25 33 5 77 15 97 22 37 13 39 12 68 -21 l30 -33 47 21z m2070 29 c31
-17 4 -29 -65 -29 -64 0 -97 12 -97 37 0 18 124 12 162 -8z m-423 2 c12 -8 9
-11 -13 -17 -32 -8 -32 -37 0 -42 17 -2 21 -10 20 -40 l-1 -37 50 0 c41 1 58
7 90 31 77 60 89 48 28 -28 -12 -15 -24 -40 -27 -55 -6 -28 -7 -28 -72 -25
-76 4 -247 -22 -315 -47 -54 -21 -89 -4 -89 43 0 39 -42 36 -71 -6 -12 -18
-24 -35 -26 -37 -2 -3 -10 5 -19 17 -19 28 -40 28 -54 1 -11 -19 -13 -18 -39
18 l-28 38 24 7 c44 12 177 12 215 -1 27 -9 43 -9 57 -2 11 6 58 11 105 11 79
0 87 2 101 24 23 34 8 116 -23 132 -12 6 -19 14 -15 17 10 10 86 8 102 -2z
m961 -8 c32 -11 -36 -24 -123 -24 -93 0 -146 18 -96 32 25 7 193 1 219 -8z
m-2000 -22 c0 -16 3 -36 6 -45 4 -10 1 -16 -9 -16 -20 0 -61 77 -44 84 32 13
47 6 47 -23z m114 -12 c10 -63 -17 -82 -48 -34 -27 41 -21 75 13 75 26 0 29
-4 35 -41z m645 15 c8 -7 -15 -98 -25 -101 -14 -5 -74 44 -74 61 0 42 67 70
99 40z m111 -9 c7 -8 20 -15 30 -15 29 0 43 -25 30 -51 -10 -18 -18 -20 -48
-15 -21 3 -45 6 -54 6 -23 0 -24 52 -2 74 19 20 28 20 44 1z m-1930 -41 c26
-45 22 -49 -66 -74 -91 -26 -100 -25 -112 9 -13 38 -5 45 85 75 37 13 69 24
70 25 0 0 11 -15 23 -35z m65 17 c3 -10 14 -26 25 -36 25 -23 25 -35 0 -35
-13 0 -20 7 -20 18 0 10 -7 27 -15 38 -17 22 -19 34 -6 34 5 0 12 -8 16 -19z
m902 3 c12 -31 -25 -46 -95 -40 -100 9 -106 21 -16 35 43 6 80 14 83 16 9 10
22 5 28 -11z m423 -19 c0 -30 -3 -35 -25 -35 -13 0 -28 -7 -33 -16 -7 -13 -13
-14 -30 -5 -11 6 -32 11 -46 11 -30 0 -37 36 -9 47 14 6 114 29 136 32 4 1 7
-15 7 -34z m1853 2 c21 -65 -38 -106 -68 -47 -16 31 -45 41 -45 15 0 -21 -13
-19 -39 9 l-22 23 23 8 c27 10 106 23 127 21 8 -1 19 -14 24 -29z m-716 -22
c8 -24 5 -24 -87 -5 l-85 18 83 1 c66 1 84 -2 89 -14z m467 -15 c29 -29 29
-29 -175 -57 -47 -6 -56 9 -33 54 l19 35 85 -7 c64 -5 90 -11 104 -25z m-3575
-43 c-41 -29 -78 -62 -84 -75 -9 -20 -15 -22 -50 -17 -120 18 -121 26 -9 73
205 87 244 92 143 19z m1188 36 c5 -14 -65 -26 -122 -21 -34 3 -36 5 -15 10
14 3 43 10 65 16 49 12 67 11 72 -5z m1063 2 c0 -3 -2 -5 -5 -5 -3 0 -5 2 -5
5 0 3 2 5 5 5 3 0 5 -2 5 -5z m-847 -62 c-30 -13 -106 -17 -116 -6 -4 4 4 19
19 34 l25 27 51 -22 50 -21 -29 -12z m-1698 21 c23 -15 23 -18 10 -37 -8 -12
-15 -32 -15 -44 0 -20 -5 -23 -34 -23 -48 0 -51 11 -21 70 29 57 27 56 60 34z
m1956 6 c26 -15 24 -30 -5 -30 -25 0 -51 22 -39 33 9 10 21 9 44 -3z m-851
-19 c30 -6 22 -9 -55 -19 -49 -7 -103 -15 -120 -17 -22 -4 -14 3 30 25 41 20
68 28 85 23 14 -3 41 -9 60 -12z m740 5 c0 -20 -26 -40 -35 -26 -10 16 2 40
20 40 8 0 15 -6 15 -14z m-585 -26 c-5 -8 -11 -8 -21 1 -12 10 -12 14 -2 20
16 10 33 -5 23 -21z m883 14 c33 -7 27 -24 -8 -24 -31 0 -100 24 -100 35 0 5
57 -1 108 -11z m166 0 c11 -28 6 -35 -21 -32 -38 4 -47 48 -10 48 14 0 28 -7
31 -16z m-2454 -49 c0 -31 -3 -35 -37 -44 -71 -17 -113 -22 -113 -12 0 5 -7
17 -16 26 -9 9 -15 17 -13 19 3 2 147 40 172 45 4 0 7 -15 7 -34z m1550 15
c-8 -5 -33 -10 -55 -10 -29 0 -36 3 -25 10 8 5 33 10 55 10 29 0 36 -3 25 -10z
m-200 -47 c0 -57 -54 -78 -125 -49 -47 20 -40 31 37 57 75 26 88 25 88 -8z
m-891 -54 c28 -37 27 -38 -37 -46 -93 -11 -172 13 -172 51 0 9 17 11 61 8 37
-3 65 0 72 7 20 20 53 12 76 -20z m-249 -22 l0 -43 -58 6 c-81 10 -102 18
-102 41 0 16 8 19 53 20 28 0 61 4 72 9 33 14 35 12 35 -33z"/>
<path d="M668 1954 c-31 -16 -37 -51 -12 -61 9 -3 25 -1 35 5 27 17 30 15 23
-13 -7 -28 17 -45 39 -26 8 6 40 12 72 13 72 4 79 -6 94 -126 12 -96 25 -114
76 -99 39 12 40 11 23 -53 -11 -40 -11 -47 4 -58 8 -6 17 -20 19 -31 6 -31 46
-32 60 -1 10 20 9 30 -3 48 -11 16 -14 40 -10 80 5 66 -22 96 -78 84 l-30 -5
0 54 c0 68 -38 160 -73 176 -18 8 -38 8 -73 0 -44 -9 -50 -8 -63 9 -16 24 -64
26 -103 4z"/>
<path d="M397 1724 c-30 -30 16 -110 84 -144 20 -11 41 -29 44 -40 10 -33 49
-23 53 13 4 34 -15 57 -74 92 -31 18 -44 32 -46 53 -3 27 -43 44 -61 26z"/>
<path d="M469 1460 c-9 -25 -16 -30 -44 -30 -68 0 -84 -62 -39 -151 l25 -50
-30 -46 c-50 -75 -39 -106 56 -162 94 -55 80 -142 -22 -145 -28 -1 -33 -36 -6
-43 12 -3 21 -9 21 -14 0 -14 43 -10 62 5 38 28 78 89 78 118 0 55 -56 126
-117 149 -36 14 -37 33 -4 80 39 53 39 70 -1 132 -34 53 -30 67 24 67 31 0 58
32 58 70 0 53 -45 68 -61 20z"/>
<path d="M885 797 c-12 -7 -56 -12 -110 -12 -65 0 -100 -5 -125 -17 -19 -10
-53 -21 -74 -26 -42 -8 -63 -30 -53 -56 7 -17 37 -21 65 -7 51 25 98 35 200
41 65 3 117 11 124 18 7 7 26 12 42 12 40 0 59 13 54 36 -4 23 -91 31 -123 11z"/>
<path d="M172 748 c-5 -7 -13 -23 -17 -36 -8 -27 -60 -62 -92 -62 -34 0 -53
-11 -53 -30 0 -34 48 -39 126 -12 36 13 56 15 67 8 11 -7 21 -6 34 6 12 11 47
18 103 23 171 14 221 59 70 62 -47 1 -94 3 -105 4 -11 1 -31 -1 -45 -5 -22 -6
-27 -3 -37 24 -12 31 -33 39 -51 18z"/>
<path d="M2735 353 c-68 -17 -60 -53 13 -53 75 0 102 8 102 30 0 28 -53 38
-115 23z"/>
<path d="M2360 321 c-8 -5 -26 -7 -40 -4 -17 3 -31 -1 -39 -11 -17 -20 -60
-20 -85 -1 -28 21 -43 19 -164 -19 -59 -19 -120 -37 -135 -40 -22 -5 -28 -12
-25 -29 4 -32 60 -34 139 -4 35 13 89 30 119 37 30 7 61 17 68 23 8 7 12 5 12
-5 0 -44 92 -65 139 -31 19 13 45 16 120 15 102 -2 166 16 166 48 0 12 -19 15
-105 16 -58 0 -116 3 -130 7 -14 4 -32 3 -40 -2z"/>
<path d="M162 91 c-8 -5 -12 -17 -10 -27 6 -36 118 -31 118 5 0 29 -74 44
-108 22z"/>
</g>
</svg>
